<?xml version="1.0" encoding="utf-8"?>
<!-- Generator: Adobe Illustrator 23.0.0, SVG Export Plug-In . SVG Version: 6.00 Build 0)  -->
<svg version="1.1" id="Layer_1" xmlns="http://www.w3.org/2000/svg" xmlns:xlink="http://www.w3.org/1999/xlink" x="0px" y="0px"
	 viewBox="0 0 278 84" style="enable-background:new 0 0 278 84;" xml:space="preserve">
<style type="text/css">
	.st0{fill:#24ACE3;}
	.st1{fill:#FFFFFF;}
</style>
<g>
	<g>
		<path class="st1" d="M41.8,0C19.7,0,1.7,17,0,38.5l22.5,9.3c1.9-1.3,4.2-2.1,6.7-2.1c0.2,0,0.4,0,0.7,0l10-14.5c0-0.1,0-0.1,0-0.2
			c0-8.7,7.1-15.8,15.8-15.8c8.7,0,15.8,7.1,15.8,15.8c0,8.7-7.1,15.8-15.8,15.8c-0.1,0-0.2,0-0.4,0L41,57.1c0,0.2,0,0.4,0,0.6
			c0,6.5-5.3,11.9-11.9,11.9c-5.7,0-10.5-4.1-11.6-9.5L1.4,53.3c5,17.6,21.1,30.5,40.3,30.5c23.1,0,41.9-18.8,41.9-41.9
			C83.7,18.8,64.9,0,41.8,0z"/>
		<path class="st1" d="M26.3,63.6l-5.1-2.1c0.9,1.9,2.5,3.5,4.6,4.4c4.5,1.9,9.8-0.3,11.6-4.8c0.9-2.2,0.9-4.6,0-6.8
			c-0.9-2.2-2.6-3.9-4.8-4.8c-2.2-0.9-4.5-0.9-6.6-0.1l5.3,2.2c3.3,1.4,4.9,5.2,3.5,8.6C33.4,63.4,29.6,65,26.3,63.6z"/>
		<path class="st1" d="M66.1,31.1c0-5.8-4.7-10.5-10.5-10.5s-10.5,4.7-10.5,10.5s4.7,10.5,10.5,10.5S66.1,36.9,66.1,31.1z
			 M47.7,31.1c0-4.4,3.5-7.9,7.9-7.9c4.4,0,7.9,3.5,7.9,7.9c0,4.4-3.5,7.9-7.9,7.9C51.2,39,47.7,35.5,47.7,31.1z"/>
	</g>
	<g>
		<path class="st1" d="M128.4,28.7l-2.8,4.9c-2.2-1.5-5.1-2.4-7.7-2.4c-2.9,0-4.7,1.2-4.7,3.4c0,2.6,3.2,3.2,8,5
			c5.1,1.8,8.1,4,8.1,8.7c0,6.4-5.1,10-12.3,10c-3.5,0-7.8-0.9-11.1-2.9l2-5.5c2.7,1.4,5.9,2.2,8.7,2.2c3.8,0,5.7-1.4,5.7-3.5
			c0-2.4-2.8-3.1-7.3-4.6c-5.1-1.7-8.7-4-8.7-9.2c0-5.9,4.7-9.2,11.5-9.2C122.5,25.6,126.3,27.1,128.4,28.7z"/>
		<path class="st1" d="M150.4,31.8v25.9h-6.6V31.8h-9.6v-5.7h25.8v5.7H150.4z"/>
		<path class="st1" d="M173.9,31.8v7.1h12.7v5.7h-12.7V52h14.7v5.7h-21.3V26.1h21.3v5.7H173.9z"/>
		<path class="st1" d="M203.3,51.6l-2.1,6.1h-6.9l11.8-31.6h6.7L225,57.7h-7.2l-2.1-6.1H203.3z M209.4,33.7l-4.3,12.6h8.7
			L209.4,33.7z"/>
		<path class="st1" d="M258.9,38.3l-8.6,18.4h-3.7L238,38.5v19.2h-6.3V26.1h6.3l10.6,22.8l10.2-22.8h6.4v31.6h-6.3L258.9,38.3z"/>
		<path class="st1" d="M278,30.1c0,2.7-2,4.4-4.4,4.4c-2.3,0-4.4-1.7-4.4-4.4c0-2.7,2-4.4,4.4-4.4C276,25.7,278,27.4,278,30.1z
			 M270,30.1c0,2.3,1.6,3.7,3.6,3.7c2,0,3.6-1.4,3.6-3.7c0-2.3-1.6-3.7-3.6-3.7C271.6,26.4,270,27.8,270,30.1z M273.7,27.9
			c1.1,0,1.5,0.6,1.5,1.2c0,0.6-0.4,1-0.8,1.2l1,1.9h-0.8l-0.9-1.7h-0.9v1.7h-0.7v-4.3H273.7z M272.9,29.9h0.8
			c0.5,0,0.8-0.3,0.8-0.7c0-0.4-0.2-0.7-0.8-0.7h-0.8V29.9z"/>
	</g>
</g>
</svg>
